<svg fill="none" height="77" viewBox="0 0 66 77" width="66" xmlns="http://www.w3.org/2000/svg"><path d="m32.3573 76.627c-19.5695-13.1733-34.14027-31.8547-32.18058-70.54095 10.76458-4.13408 21.67368-6.189405 32.74078-6.08205203 11.0672.05270073 21.945 2.26808203 32.6472 6.56026203 1.3956 38.71164-13.4465 57.17834-33.2074 70.06274z" fill="#202960"/><path d="m32.4101 69.4518c-8.5766-6.3963-14.6235-13.2533-18.8493-21.3184-5.40282-10.3118-7.92855-22.837-7.67871-38.17489 8.87521-2.9083 17.86161-4.34488 26.77781-4.28047l.4353.0039c8.9162.06441 17.8811 1.63373 26.7114 4.67086.0254 15.3398-2.6838 27.8279-8.2369 38.0597-4.3429 8.0007-10.4913 14.7698-19.1596 21.0393z" fill="#47aded"/><g fill="#fff"><path d="m21.9167 26.2197h2.2856l-4.7196 13.4738h-2.3227l-4.7002-13.4738h2.2681l2.8107 8.3774c.1484.4002.3045.9135.4704 1.544.1659.6304.2733 1.0989.3221 1.4053.08-.4665.203-1.0072.3689-1.622s.3006-1.0696.406-1.3644z"/><path d="m34.9025 30.2932c0 1.4073-.4606 2.4847-1.3819 3.2342-.9213.7496-2.233 1.1243-3.935 1.1243h-1.4015v5.0417h-2.2036v-13.4738h3.8803c1.6825 0 2.9454.3435 3.7827 1.0326.8394.687 1.259 1.702 1.259 3.041zm-6.7184 2.5062h1.1712c1.1301 0 1.9596-.1972 2.4886-.5895s.7925-1.0071.7925-1.8426c0-.7748-.2362-1.3506-.7105-1.7332-.4724-.3806-1.2102-.5719-2.2115-.5719h-1.5303z"/><path d="m48.8195 39.6934h-2.6995l-6.6266-10.7373h-.0742l.0469.5993c.0859 1.1438.1288 2.188.1288 3.1327v7.0053h-2.0007v-13.4738h2.6722l6.609 10.6826h.0547c-.0117-.1405-.0371-.6558-.0742-1.5439s-.0547-1.581-.0547-2.0787v-7.06h2.0183z"/><path d="m26.1036 22.4994c-.1542 0-.3084-.0586-.4274-.1757-.2362-.2362-.2362-.6168 0-.853 1.4034-1.4034 3.2674-2.1744 5.2505-2.1744s3.8472.773 5.2506 2.1744c.2361.2362.2361.6168 0 .853-.2362.2362-.6168.2362-.853 0-1.175-1.175-2.7365-1.8211-4.3976-1.8211-1.661 0-3.2225.6461-4.3976 1.8211-.1171.1171-.2713.1757-.4255.1757z"/><path d="m39.3685 19.15c-.1542 0-.3084-.0586-.4255-.1757-2.1412-2.1412-4.989-3.3202-8.0164-3.3202s-5.8751 1.179-8.0164 3.3202c-.2361.2362-.6168.2362-.8529 0-.2362-.2362-.2362-.6168 0-.853 2.3695-2.3696 5.5179-3.6734 8.8693-3.6734s6.4998 1.3038 8.8693 3.6734c.2362.2362.2362.6168 0 .853-.1171.1171-.2713.1757-.4274.1757z"/><path d="m42.9873 15.8005c-.1542 0-.3084-.0586-.4255-.1757-2.9473-2.9473-6.8648-4.5694-11.032-4.5694-4.1673 0-8.0847 1.6221-11.032 4.5694-.2362.2362-.6168.2362-.853 0s-.2362-.6168 0-.853c3.1737-3.1737 7.3957-4.92262 11.885-4.92262s8.7093 1.74892 11.885 4.92262c.2361.2362.2361.6168 0 .853-.1171.1171-.2713.1757-.4275.1757z"/></g><path d="m35.6814 49.1854h-1.8836v-2.4379c0-1.4034-1.1419-2.5452-2.5453-2.5452s-2.5452 1.1418-2.5452 2.5452v2.4379h-1.8836v-2.4379c0-2.4418 1.987-4.4288 4.4288-4.4288s4.4289 1.987 4.4289 4.4288z" fill="#e6e6e6"/><path d="m36.2377 59.1439h-9.9702c-.6988 0-1.2648-.566-1.2648-1.2648v-7.9617c0-.6988.566-1.2648 1.2648-1.2648h9.9702c.6988 0 1.2648.566 1.2648 1.2648v7.9617c0 .6988-.566 1.2648-1.2648 1.2648z" fill="#ffba52"/><path d="m31.2525 56.5948c-.5621 0-1.0208-.4587-1.0208-1.0209v-1.177c-.4606-.3279-.7398-.8607-.7398-1.4346 0-.9701.7906-1.7606 1.7606-1.7606.9701 0 1.7606.7905 1.7606 1.7606 0 .5719-.2791 1.1067-.7397 1.4346v1.177c0 .5622-.4587 1.0209-1.0209 1.0209z" fill="#17093a" opacity=".3"/><path d="m32.6852 52.9623c0-.7905-.6422-1.4327-1.4327-1.4327s-1.4327.6422-1.4327 1.4327c0 .5407.2987 1.0091.7398 1.2531v1.3585c0 .3826.3103.6929.6929.6929s.6929-.3103.6929-.6929v-1.3585c.4411-.244.7398-.7124.7398-1.2531z" fill="#17093a" opacity=".3"/></svg>